<svg width="27" height="32" xmlns="http://www.w3.org/2000/svg" xmlns:xlink="http://www.w3.org/1999/xlink" xmlns:svgjs="http://svgjs.com/svgjs" viewBox="0.081 0 26.839 32"><svg xmlns="http://www.w3.org/2000/svg" width="27" height="32" viewBox="2 1.999 26 31"><path paint-order="stroke fill markers" fill-rule="evenodd" d="M25.185 33H4.81a2.81 2.81 0 0 1-2.756-3.365l1.86-16.984c.275-1.395 1.433-2.347 2.767-2.347l16.63-.002c1.334 0 2.493.95 2.755 2.262l1.885 17.154c.153.747-.06 1.598-.595 2.251A2.793 2.793 0 0 1 25.185 33zm-1.872-20.762l-16.63.003a.88.88 0 0 0-.86.705L3.966 29.928c-.083.44.07.693.169.813a.86.86 0 0 0 .676.321h20.375c.36 0 .579-.202.677-.32a.866.866 0 0 0 .182-.73L24.158 12.86c-.068-.325-.43-.622-.845-.622zm-2.1 4.256a.968.968 0 0 1-.954-.822l-1.597-10.38c-.168-.76-.907-1.355-1.744-1.355h-3.84c-.837 0-1.576.595-1.755 1.414L9.737 15.672a.971.971 0 0 1-1.103.81.97.97 0 0 1-.808-1.105L9.423 4.996c.383-1.761 1.916-2.997 3.656-2.997h3.839a3.756 3.756 0 0 1 3.644 2.937l1.61 10.44a.969.969 0 0 1-.959 1.118z"/></svg></svg>