<svg width="16" height="16" xmlns="http://www.w3.org/2000/svg" xmlns:xlink="http://www.w3.org/1999/xlink" xmlns:svgjs="http://svgjs.com/svgjs" fill="#ecc7d0"><svg xmlns="http://www.w3.org/2000/svg" width="16" height="16" viewBox="1.993 1.993 15.002 15.002"><path paint-order="stroke fill markers" fill-rule="evenodd" d="M12.012 3.71a5.878 5.878 0 0 0-8.303 0 5.879 5.879 0 0 0 0 8.301c2.039 2.038 5.213 2.256 7.5.665.048.228.159.445.335.622l3.334 3.332a1.24 1.24 0 1 0 1.754-1.754l-3.334-3.332a1.229 1.229 0 0 0-.622-.335c1.592-2.287 1.374-5.46-.664-7.5zm-1.053 7.25a4.388 4.388 0 0 1-6.197 0 4.388 4.388 0 0 1 0-6.198 4.388 4.388 0 0 1 6.197 0 4.386 4.386 0 0 1 0 6.197z"/></svg></svg>