<svg width="13" height="10" xmlns="http://www.w3.org/2000/svg" xmlns:xlink="http://www.w3.org/1999/xlink" xmlns:svgjs="http://svgjs.com/svgjs" viewBox="0 0.125 13 9.75" fill="#ea2260"><svg xmlns="http://www.w3.org/2000/svg" width="13" height="10" viewBox="2 2 12 9"><path paint-order="stroke fill markers" fill-rule="evenodd" d="M12.593 2H3.406C2.631 2 2 2.644 2 3.436v6.127C2 10.355 2.63 11 3.406 11h9.187C13.37 11 14 10.355 14 9.563V3.436C14 2.644 13.369 2 12.593 2zm.47 7.563c0 .265-.21.48-.47.48H3.406a.474.474 0 0 1-.469-.48V3.436c0-.264.21-.479.469-.479h9.187c.26 0 .47.215.47.479v6.127zm-.08-6.967L8 6.382 3.017 2.596l-.56.769L8 7.575l5.542-4.21-.56-.769z"/></svg></svg>