<svg width="10" height="13" xmlns="http://www.w3.org/2000/svg" xmlns:xlink="http://www.w3.org/1999/xlink" xmlns:svgjs="http://svgjs.com/svgjs" viewBox="0.125 0 9.75 13" fill="#ea2260"><svg xmlns="http://www.w3.org/2000/svg" width="10" height="13" viewBox="2 2 9 12"><path paint-order="stroke fill markers" fill-rule="evenodd" d="M9.676 6.406h-.795V4.479c0-1.367-1.068-2.48-2.382-2.48S4.117 3.113 4.117 4.48v1.927h-.794c-.73 0-1.323.63-1.323 1.406v4.781C2 13.37 2.594 14 3.323 14h6.353c.73 0 1.324-.631 1.324-1.407V7.812c0-.775-.594-1.406-1.324-1.406zM5 4.479c0-.85.673-1.542 1.5-1.542s1.5.692 1.5 1.542v1.927H5V4.479zm5.119 8.114c0 .259-.198.47-.442.47H3.323c-.243 0-.44-.211-.44-.47V7.812c0-.258.197-.469.44-.469h6.353c.244 0 .442.21.442.469v4.781zM6.5 8.703c-.451 0-.816.388-.816.867 0 .306.149.574.374.729v1.029c0 .258.197.468.441.468s.441-.21.441-.468V10.3a.88.88 0 0 0 .376-.73c0-.479-.365-.867-.816-.867z"/></svg></svg>