<svg width="13" height="14" xmlns="http://www.w3.org/2000/svg" xmlns:xlink="http://www.w3.org/1999/xlink" xmlns:svgjs="http://svgjs.com/svgjs" viewBox="0.038 0 12.923 14" fill="#ea2260"><svg xmlns="http://www.w3.org/2000/svg" width="13" height="14" viewBox="2 2 12 13"><path paint-order="stroke fill markers" fill-rule="evenodd" d="M6.19 8.88h1.162c.509 0 1.01.12 1.486.358l.404-.803a4.22 4.22 0 0 0-1.89-.451H6.19C3.88 7.984 2 9.849 2 12.142v1.048a.45.45 0 0 0 .452.448h5.503v-.897h-5.05v-.599c0-1.798 1.474-3.261 3.286-3.261zM6.765 2C5.234 2 3.99 3.234 3.99 4.752c0 1.518 1.244 2.753 2.774 2.753S9.538 6.27 9.538 4.752 8.293 2 6.764 2zm0 4.607c-1.031 0-1.87-.832-1.87-1.855 0-1.022.839-1.855 1.87-1.855 1.03 0 1.869.833 1.869 1.855a1.865 1.865 0 0 1-1.87 1.855zm3.738 1.451c-1.928 0-3.497 1.557-3.497 3.47 0 1.915 1.569 3.472 3.497 3.472C12.431 15 14 13.443 14 11.529c0-1.914-1.57-3.47-3.498-3.47zm0 6.044c-1.43 0-2.592-1.154-2.592-2.573s1.163-2.573 2.592-2.573c1.43 0 2.593 1.154 2.593 2.573s-1.163 2.573-2.593 2.573zm0-4.264a.45.45 0 0 0-.452.45v2.483a.45.45 0 0 0 .452.449.45.45 0 0 0 .453-.45v-2.483a.45.45 0 0 0-.453-.449zm1.252 1.242H9.25a.45.45 0 0 0-.452.449.45.45 0 0 0 .452.449h2.503a.45.45 0 0 0 .452-.45.45.45 0 0 0-.452-.448z"/></svg></svg>