<svg width="13" height="13" xmlns="http://www.w3.org/2000/svg" xmlns:xlink="http://www.w3.org/1999/xlink" xmlns:svgjs="http://svgjs.com/svgjs" viewBox="0.005 0 12.99 13" fill="#ea2260"><svg xmlns="http://www.w3.org/2000/svg" width="13" height="13" viewBox="2 1.999 11.991 12"><path paint-order="stroke fill markers" fill-rule="evenodd" d="M13.645 11.009l-1.733-1.743a1.23 1.23 0 0 0-.878-.361c-.346 0-.673.137-.92.386l-.675.678c-.525-.293-1.221-.696-1.945-1.423-.722-.727-1.123-1.425-1.416-1.955l.675-.678c.502-.506.513-1.317.023-1.809L5.044 2.362A1.227 1.227 0 0 0 4.166 2c-.339 0-.66.132-.905.37-.15.12-.896.784-1.174 2.15-.39 1.913.505 3.754 3.09 6.353C8.064 13.774 10.53 14 11.217 14c.142 0 .228-.01.251-.012 1.347-.159 1.83-.76 2.181-1.199.456-.569.455-1.317-.004-1.78zm-.575 1.31c-.331.413-.644.803-1.688.926 0 0-.058.006-.166.006-.614 0-2.828-.209-5.513-2.908-2.383-2.397-3.22-4.04-2.887-5.674.242-1.192.887-1.699.912-1.718l.022-.016.02-.02a.556.556 0 0 1 .396-.167c.135 0 .26.05.351.143L6.25 4.633c.2.2.19.537-.023.751l-.764.767-.012.014a.615.615 0 0 0-.066.712c.316.573.75 1.36 1.583 2.198.831.835 1.612 1.27 2.18 1.588a.67.67 0 0 0 .323.086.593.593 0 0 0 .452-.21l.716-.72a.555.555 0 0 1 .395-.166c.135 0 .26.05.352.142l1.732 1.742c.22.222.13.562-.048.783zM9.264 3.833c.639.074 1.392.463 1.917.992.53.533.919 1.298.99 1.947a.373.373 0 1 0 .739-.08c-.089-.822-.55-1.74-1.203-2.396-.646-.65-1.55-1.113-2.358-1.206a.374.374 0 1 0-.085.743zM8.916 5.4c.346.04.824.298 1.138.613.316.318.573.803.61 1.155a.373.373 0 0 0 .41.331.373.373 0 0 0 .33-.412c-.064-.6-.46-1.238-.824-1.603-.36-.362-.989-.759-1.579-.827a.374.374 0 1 0-.085.743z"/></svg></svg>